# xmcd CD database file
#
# Track frame offsets:
#	150
#	27072
#	53622
#	76980
#	107667
#	137135
#	163830
#	190617
#	215415
#
# Disc length: 3220 seconds
#
# Revision: 0
# Processed by: cddbd v1.5.2PL0 Copyright (c) Steve Scherf et al.
# Submitted via: CDex 1.51
#
DISCID=6e0c9209
DTITLE=Davide Ravasio - Metropolitan Tribe
DYEAR=2006
DGENRE=New Age
TTITLE0=Casablanca groove
TTITLE1=Mettropoliutan tribe
TTITLE2=Mi Rag
TTITLE3=Human skyline
TTITLE4=Caravan streets
TTITLE5=Sand waves
TTITLE6=Cairo's lights
TTITLE7=Clouds in the mirror
TTITLE8=Kale
EXTD=YEAR: 2006
EXTT0=
EXTT1=
EXTT2=
EXTT3=
EXTT4=
EXTT5=
EXTT6=
EXTT7=
EXTT8=
PLAYORDER=
